<?xml version="1.0" encoding="UTF-8" standalone="no"?>
<!-- Created with Inkscape (http://www.inkscape.org/) -->

<svg
   width="256"
   height="256"
   viewBox="0 0 67.733003 67.733003"
   version="1.1"
   id="svg5"
   xml:space="preserve"
   inkscape:export-filename="User.svg"
   inkscape:export-xdpi="96"
   inkscape:export-ydpi="96"
   xmlns:inkscape="http://www.inkscape.org/namespaces/inkscape"
   xmlns:sodipodi="http://sodipodi.sourceforge.net/DTD/sodipodi-0.dtd"
   xmlns="http://www.w3.org/2000/svg"
   xmlns:svg="http://www.w3.org/2000/svg"><sodipodi:namedview
     id="namedview7"
     pagecolor="#ffffff"
     bordercolor="#000000"
     borderopacity="0.25"
     inkscape:showpageshadow="2"
     inkscape:pageopacity="0.0"
     inkscape:pagecheckerboard="0"
     inkscape:deskcolor="#d1d1d1"
     inkscape:document-units="px"
     showgrid="false"
     showguides="true"><sodipodi:guide
       position="47.427227,64.551908"
       orientation="0,-1"
       id="guide370"
       inkscape:locked="false" /></sodipodi:namedview><defs
     id="defs2" /><g
     inkscape:label="Réteg 1"
     inkscape:groupmode="layer"
     id="layer1"><path
       d="M 29.724292,56.844068 A 11.179322,11.179322 0 0 1 17.72666,52.394987 10.345909,10.345909 0 0 1 15.956524,44.571983 9.8146393,9.8146393 0 0 1 16.294355,43.257681 l 0.264555,-0.807937 0.72229,0.529109 a 18.153809,18.153809 0 0 0 5.503966,2.749556 l 0.523399,0.158923 -0.04758,0.523399 a 3.1548854,3.1548854 0 0 0 0.569078,2.089788 3.3663861,3.3663861 0 0 0 3.613164,1.34209 3.0994923,3.0994923 0 0 0 0.863132,-0.377798 l 14.07486,-8.968677 a 2.9307954,2.9307954 0 0 0 1.319346,-1.958844 3.1271889,3.1271889 0 0 0 -0.531012,-2.359292 3.368904,3.368904 0 0 0 -3.613164,-1.341994 3.0969746,3.0969746 0 0 0 -0.864084,0.377799 l -5.370641,3.424265 a 10.267855,10.267855 0 0 1 -2.857757,1.256443 11.179322,11.179322 0 0 1 -11.997633,-4.446606 10.343391,10.343391 0 0 1 -1.767566,-7.825478 9.7063709,9.7063709 0 0 1 4.386177,-6.501184 l 14.072291,-8.971151 a 10.252748,10.252748 0 0 1 2.857758,-1.256347 11.179322,11.179322 0 0 1 11.997629,4.448984 10.345909,10.345909 0 0 1 1.77014,7.823005 9.9279437,9.9279437 0 0 1 -0.33783,1.314397 l -0.26456,0.807937 -0.72038,-0.529109 a 18.138702,18.138702 0 0 0 -5.506544,-2.75203 l -0.523399,-0.158923 0.04758,-0.521495 a 3.1599211,3.1599211 0 0 0 -0.569077,-2.092358 3.3663861,3.3663861 0 0 0 -3.613165,-1.339521 3.0994923,3.0994923 0 0 0 -0.863132,0.377799 l -14.07486,8.968676 a 2.9257596,2.9257596 0 0 0 -1.319345,1.958844 3.1221531,3.1221531 0 0 0 0.531011,2.359292 3.368904,3.368904 0 0 0 3.613165,1.341994 3.1095638,3.1095638 0 0 0 0.865987,-0.380653 l 5.368077,-3.424362 a 10.240159,10.240159 0 0 1 2.857758,-1.253872 11.179322,11.179322 0 0 1 11.997634,4.44651 10.343391,10.343391 0 0 1 1.76756,7.825573 9.7114069,9.7114069 0 0 1 -4.38617,6.503659 L 32.58072,55.586674 a 10.252748,10.252748 0 0 1 -2.857758,1.256442 M 55.802973,11.647439 C 50.193183,3.6154567 39.109499,1.2360857 31.097691,6.3422694 l -14.07486,8.9686756 a 16.144553,16.144553 0 0 0 -7.2918008,10.81418 17.003145,17.003145 0 0 0 1.6769688,10.917529 16.189874,16.189874 0 0 0 -2.4171508,6.03279 17.204574,17.204574 0 0 0 2.9408348,13.009791 c 5.612358,8.031982 16.693472,10.411353 24.70528,5.307644 l 14.07486,-8.968581 a 16.139517,16.139517 0 0 0 7.2918,-10.814277 17.010699,17.010699 0 0 0 -1.6744,-10.917432 16.187357,16.187357 0 0 0 2.41211,-6.03279 17.199539,17.199539 0 0 0 -2.93836,-13.01236 z"
       id="path11"
       style="stroke-width:2.51786" /></g></svg>
